<svg xmlns="http://www.w3.org/2000/svg" xmlns:xlink="http://www.w3.org/1999/xlink" width="500" zoomAndPan="magnify" viewBox="0 0 375 374.999991" height="500" preserveAspectRatio="xMidYMid meet" version="1.0"><defs><g/></defs><g fill="#db2955" fill-opacity="1"><g transform="translate(32.815522, 176.317628)"><g><path d="M 181.015625 -132.640625 C 183.878906 -132.640625 185.46875 -132.015625 185.78125 -130.765625 C 186.09375 -129.523438 185.75 -127.597656 184.75 -124.984375 L 135.4375 -6.53125 C 134.3125 -3.789062 132.878906 -2.015625 131.140625 -1.203125 C 129.398438 -0.398438 127.222656 0 124.609375 0 L 101.625 0 C 98.882812 0 96.796875 -0.429688 95.359375 -1.296875 C 93.929688 -2.171875 93.15625 -3.796875 93.03125 -6.171875 L 90.609375 -49.875 C 90.484375 -55.726562 90.632812 -61.457031 91.0625 -67.0625 C 91.5 -72.664062 92.15625 -78.144531 93.03125 -83.5 L 91.34375 -83.5 C 90.226562 -78.144531 88.890625 -72.695312 87.328125 -67.15625 C 85.773438 -61.613281 83.878906 -55.851562 81.640625 -49.875 L 63.890625 -6.53125 C 62.640625 -3.789062 61.144531 -2.015625 59.40625 -1.203125 C 57.664062 -0.398438 55.488281 0 52.875 0 L 30.640625 0 C 27.898438 0 25.84375 -0.398438 24.46875 -1.203125 C 23.101562 -2.015625 22.296875 -3.671875 22.046875 -6.171875 L 14.390625 -124.984375 C 14.265625 -127.597656 14.570312 -129.523438 15.3125 -130.765625 C 16.0625 -132.015625 17.867188 -132.640625 20.734375 -132.640625 L 43.34375 -132.640625 C 46.707031 -132.640625 49.101562 -132.203125 50.53125 -131.328125 C 51.96875 -130.453125 52.75 -128.582031 52.875 -125.71875 L 52.5 -76.78125 C 52.5 -73.539062 52.3125 -69.644531 51.9375 -65.09375 C 51.5625 -60.550781 51.125 -56.285156 50.625 -52.296875 C 50.125 -48.316406 49.6875 -45.457031 49.3125 -43.71875 L 50.625 -43.71875 C 51 -45.582031 51.648438 -48.503906 52.578125 -52.484375 C 53.515625 -56.472656 54.632812 -60.675781 55.9375 -65.09375 C 57.25 -69.519531 58.59375 -73.414062 59.96875 -76.78125 L 80.328125 -125.71875 C 81.453125 -128.707031 82.914062 -130.609375 84.71875 -131.421875 C 86.519531 -132.234375 88.914062 -132.640625 91.90625 -132.640625 L 111.71875 -132.640625 C 114.582031 -132.640625 116.820312 -132.203125 118.4375 -131.328125 C 120.0625 -130.453125 120.929688 -128.582031 121.046875 -125.71875 L 123.671875 -76.78125 C 123.921875 -73.289062 123.890625 -69.300781 123.578125 -64.8125 C 123.265625 -60.332031 122.921875 -56.160156 122.546875 -52.296875 C 122.171875 -48.441406 121.859375 -45.582031 121.609375 -43.71875 L 122.921875 -43.71875 C 123.296875 -45.457031 123.945312 -48.285156 124.875 -52.203125 C 125.8125 -56.128906 126.898438 -60.363281 128.140625 -64.90625 C 129.390625 -69.457031 130.515625 -73.414062 131.515625 -76.78125 L 148.140625 -125.71875 C 149.140625 -128.582031 150.539062 -130.453125 152.34375 -131.328125 C 154.144531 -132.203125 156.664062 -132.640625 159.90625 -132.640625 Z M 181.015625 -132.640625 "/></g></g></g><g fill="#db2955" fill-opacity="1"><g transform="translate(208.232114, 176.317628)"><g><path d="M 12.703125 -96.765625 C 14.941406 -109.097656 21.132812 -118.625 31.28125 -125.34375 C 41.4375 -132.070312 55.421875 -135.4375 73.234375 -135.4375 C 87.054688 -135.4375 97.609375 -133.007812 104.890625 -128.15625 C 112.179688 -123.300781 117.195312 -116.515625 119.9375 -107.796875 C 120.925781 -105.054688 120.984375 -103.0625 120.109375 -101.8125 C 119.242188 -100.5625 117.316406 -99.316406 114.328125 -98.078125 L 96.015625 -90.796875 C 93.273438 -89.671875 91.28125 -89.359375 90.03125 -89.859375 C 88.789062 -90.359375 87.675781 -91.976562 86.6875 -94.71875 C 85.4375 -98.320312 83.316406 -100.835938 80.328125 -102.265625 C 77.335938 -103.703125 73.664062 -104.421875 69.3125 -104.421875 C 62.957031 -104.421875 58.253906 -103.613281 55.203125 -102 C 52.148438 -100.382812 50.3125 -97.957031 49.6875 -94.71875 C 49.3125 -92.101562 50.085938 -90.046875 52.015625 -88.546875 C 53.953125 -87.054688 56.726562 -85.96875 60.34375 -85.28125 C 63.957031 -84.59375 68.003906 -83.9375 72.484375 -83.3125 C 77.710938 -82.570312 83.066406 -81.296875 88.546875 -79.484375 C 94.023438 -77.679688 98.972656 -75.035156 103.390625 -71.546875 C 107.816406 -68.054688 111.054688 -63.476562 113.109375 -57.8125 C 115.171875 -52.144531 115.453125 -45.015625 113.953125 -36.421875 C 111.460938 -22.722656 104.925781 -12.757812 94.34375 -6.53125 C 83.757812 -0.3125 69.3125 2.796875 51 2.796875 C 37.050781 2.796875 25.53125 0.398438 16.4375 -4.390625 C 7.34375 -9.179688 1.925781 -16.375 0.1875 -25.96875 C -0.3125 -28.707031 -0.0351562 -30.820312 1.015625 -32.3125 C 2.078125 -33.8125 4.039062 -35.0625 6.90625 -36.0625 L 25.21875 -42.78125 C 28.082031 -43.78125 30.257812 -44.03125 31.75 -43.53125 C 33.25 -43.03125 34.5 -41.410156 35.5 -38.671875 C 37.613281 -32.066406 44.023438 -28.765625 54.734375 -28.765625 C 61.085938 -28.765625 66.160156 -29.539062 69.953125 -31.09375 C 73.753906 -32.65625 76.03125 -35.429688 76.78125 -39.421875 C 77.40625 -43.148438 75.722656 -45.695312 71.734375 -47.0625 C 67.753906 -48.4375 62.773438 -49.5625 56.796875 -50.4375 C 51.441406 -51.1875 45.898438 -52.335938 40.171875 -53.890625 C 34.441406 -55.453125 29.207031 -57.847656 24.46875 -61.078125 C 19.738281 -64.316406 16.222656 -68.800781 13.921875 -74.53125 C 11.617188 -80.257812 11.210938 -87.671875 12.703125 -96.765625 Z M 12.703125 -96.765625 "/></g></g></g><g fill="#db2955" fill-opacity="1"><g transform="translate(77.932157, 321.680667)"><g><path d="M 77.90625 -132.640625 C 80.769531 -132.640625 82.695312 -132.046875 83.6875 -130.859375 C 84.6875 -129.679688 84.9375 -127.660156 84.4375 -124.796875 L 63.890625 -7.84375 C 63.390625 -4.976562 62.421875 -2.953125 60.984375 -1.765625 C 59.554688 -0.585938 57.410156 0 54.546875 0 L 33.4375 0 C 30.445312 0 28.484375 -0.585938 27.546875 -1.765625 C 26.617188 -2.953125 26.40625 -4.976562 26.90625 -7.84375 L 40.71875 -85.9375 L 26.71875 -78.828125 C 23.351562 -77.085938 20.859375 -76.5 19.234375 -77.0625 C 17.617188 -77.625 16.3125 -79.210938 15.3125 -81.828125 L 9.15625 -97.703125 C 8.28125 -100.316406 8.304688 -102.398438 9.234375 -103.953125 C 10.171875 -105.515625 12.070312 -107.039062 14.9375 -108.53125 L 55.109375 -129.46875 C 57.472656 -130.832031 59.398438 -131.703125 60.890625 -132.078125 C 62.390625 -132.453125 64.320312 -132.640625 66.6875 -132.640625 Z M 77.90625 -132.640625 "/></g></g></g><g fill="#db2955" fill-opacity="1"><g transform="translate(161.997618, 321.680667)"><g><path d="M 13.640625 -88.921875 C 16.253906 -103.742188 22.851562 -115.203125 33.4375 -123.296875 C 44.019531 -131.390625 57.78125 -135.4375 74.71875 -135.4375 C 85.925781 -135.4375 95.140625 -133.285156 102.359375 -128.984375 C 109.585938 -124.691406 114.632812 -118.75 117.5 -111.15625 C 120.363281 -103.5625 120.925781 -94.84375 119.1875 -85 L 111.90625 -43.90625 C 109.289062 -28.957031 102.75 -17.4375 92.28125 -9.34375 C 81.820312 -1.25 68.1875 2.796875 51.375 2.796875 C 40.164062 2.796875 30.882812 0.648438 23.53125 -3.640625 C 16.1875 -7.941406 11.050781 -13.921875 8.125 -21.578125 C 5.195312 -29.234375 4.609375 -38.046875 6.359375 -48.015625 Z M 82.9375 -88.359375 C 83.8125 -93.097656 83.035156 -96.679688 80.609375 -99.109375 C 78.179688 -101.535156 74.414062 -102.75 69.3125 -102.75 C 64.195312 -102.75 59.988281 -101.535156 56.6875 -99.109375 C 53.394531 -96.679688 51.3125 -93.097656 50.4375 -88.359375 L 42.78125 -44.46875 C 41.90625 -39.851562 42.679688 -36.269531 45.109375 -33.71875 C 47.546875 -31.164062 51.316406 -29.890625 56.421875 -29.890625 C 61.523438 -29.890625 65.695312 -31.164062 68.9375 -33.71875 C 72.175781 -36.269531 74.226562 -39.851562 75.09375 -44.46875 Z M 82.9375 -88.359375 "/></g></g></g></svg>